<?xml version="1.0" encoding="UTF-8"?>
<svg width="17px" height="17px" viewBox="0 0 17 17" version="1.1" xmlns="http://www.w3.org/2000/svg" xmlns:xlink="http://www.w3.org/1999/xlink">
    <!-- Generator: Sketch 58 (84663) - https://sketch.com -->
    <title>Vector 3 (Stroke)</title>
    <desc>Created with Sketch.</desc>
    <g id="Page-1" stroke="none" stroke-width="1" fill="none" fill-rule="evenodd">
        <g id="Group" transform="translate(-55.000000, -32.000000)" fill="#212121">
            <g id="Vector-3-(Stroke)" transform="translate(55.000000, 32.000000)">
                <path d="M0.4979181,0.4979181 C1.1618089,-0.16597287 2.238186,-0.16597287 2.902087,0.4979181 L8.49999987,6.095843 L14.097913,0.4979181 C14.761814,-0.16597287 15.838186,-0.16597287 16.502087,0.4979181 C17.16592,1.1618089 17.16592,2.238186 16.502087,2.902087 L10.904157,8.49999987 L16.502087,14.097913 C17.16592,14.761814 17.16592,15.838186 16.502087,16.502087 C15.838186,17.16592 14.761814,17.16592 14.097913,16.502087 L8.49999987,10.904157 L2.902087,16.502087 C2.238186,17.16592 1.1618089,17.16592 0.4979181,16.502087 C-0.16597287,15.838186 -0.16597287,14.761814 0.4979181,14.097913 L6.095843,8.49999987 L0.4979181,2.902087 C-0.16597287,2.238186 -0.16597287,1.1618089 0.4979181,0.4979181 Z" id="Path"></path>
            </g>
        </g>
    </g>
</svg>